<?xml version="1.0" encoding="utf-8" standalone="no"?>
<!DOCTYPE svg PUBLIC "-//W3C//DTD SVG 1.1//EN"
  "http://www.w3.org/Graphics/SVG/1.1/DTD/svg11.dtd">
<svg xmlns:xlink="http://www.w3.org/1999/xlink" width="447.26975pt" height="344.084204pt" viewBox="0 0 447.26975 344.084204" xmlns="http://www.w3.org/2000/svg" version="1.1">
 <metadata>
  <rdf:RDF xmlns:dc="http://purl.org/dc/elements/1.1/" xmlns:cc="http://creativecommons.org/ns#" xmlns:rdf="http://www.w3.org/1999/02/22-rdf-syntax-ns#">
   <cc:Work>
    <dc:type rdf:resource="http://purl.org/dc/dcmitype/StillImage"/>
    <dc:date>2024-11-20T17:02:17.821892</dc:date>
    <dc:format>image/svg+xml</dc:format>
    <dc:creator>
     <cc:Agent>
      <dc:title>Matplotlib v3.9.0, https://matplotlib.org/</dc:title>
     </cc:Agent>
    </dc:creator>
   </cc:Work>
  </rdf:RDF>
 </metadata>
 <defs>
  <style type="text/css">*{stroke-linejoin: round; stroke-linecap: butt}</style>
 </defs>
 <g id="figure_1">
  <g id="patch_1">
   <path d="M 0 344.084204 
L 447.26975 344.084204 
L 447.26975 0 
L 0 0 
L 0 344.084204 
z
" style="fill: none"/>
  </g>
  <g id="axes_1">
   <g id="patch_2">
    <path d="M 8.05625 297.446336 
L 426.55625 297.446336 
L 426.55625 20.246336 
L 8.05625 20.246336 
L 8.05625 297.446336 
z
" style="fill: none"/>
   </g>
   <g id="patch_3">
    <path d="M 440.06975 281.140454 
L 426.56975 287.25516 
L 426.56975 281.148607 
L 426.55625 281.148607 
L 426.55625 281.132301 
L 426.56975 281.132301 
L 426.56975 275.025748 
z
" style="stroke: #000000; stroke-linejoin: miter"/>
   </g>
   <g id="patch_4">
    <path d="M 35.05625 7.2 
L 41.80625 20.244706 
L 35.12375 20.244706 
L 35.12375 20.246336 
L 34.98875 20.246336 
L 34.98875 20.244706 
L 28.30625 20.244706 
z
" style="stroke: #000000; stroke-linejoin: miter"/>
   </g>
   <g id="patch_5">
    <path d="M 36.473753 281.140454 
L 57.827556 281.140454 
L 57.827556 118.081631 
L 36.473753 118.081631 
z
" clip-path="url(#p7ae753be86)" style="fill: #d62728; opacity: 0.5; stroke: #000000; stroke-linejoin: miter"/>
   </g>
   <g id="patch_6">
    <path d="M 57.827556 281.140454 
L 79.181358 281.140454 
L 79.181358 166.999278 
L 57.827556 166.999278 
z
" clip-path="url(#p7ae753be86)" style="fill: #d62728; opacity: 0.5; stroke: #000000; stroke-linejoin: miter"/>
   </g>
   <g id="patch_7">
    <path d="M 79.181358 281.140454 
L 100.535161 281.140454 
L 100.535161 69.163984 
L 79.181358 69.163984 
z
" clip-path="url(#p7ae753be86)" style="fill: #d62728; opacity: 0.5; stroke: #000000; stroke-linejoin: miter"/>
   </g>
   <g id="patch_8">
    <path d="M 100.535161 281.140454 
L 121.888964 281.140454 
L 121.888964 183.30516 
L 100.535161 183.30516 
z
" clip-path="url(#p7ae753be86)" style="fill: #d62728; opacity: 0.5; stroke: #000000; stroke-linejoin: miter"/>
   </g>
   <g id="patch_9">
    <path d="M 121.888964 281.140454 
L 143.242767 281.140454 
L 143.242767 85.469866 
L 121.888964 85.469866 
z
" clip-path="url(#p7ae753be86)" style="fill: #d62728; opacity: 0.5; stroke: #000000; stroke-linejoin: miter"/>
   </g>
   <g id="patch_10">
    <path d="M 143.242767 281.140454 
L 164.59657 281.140454 
L 164.59657 52.858101 
L 143.242767 52.858101 
z
" clip-path="url(#p7ae753be86)" style="fill: #d62728; opacity: 0.5; stroke: #000000; stroke-linejoin: miter"/>
   </g>
   <g id="patch_11">
    <path d="M 164.59657 281.140454 
L 185.950372 281.140454 
L 185.950372 118.081631 
L 164.59657 118.081631 
z
" clip-path="url(#p7ae753be86)" style="fill: #d62728; opacity: 0.5; stroke: #000000; stroke-linejoin: miter"/>
   </g>
   <g id="patch_12">
    <path d="M 185.950372 281.140454 
L 207.304175 281.140454 
L 207.304175 134.387513 
L 185.950372 134.387513 
z
" clip-path="url(#p7ae753be86)" style="fill: #d62728; opacity: 0.5; stroke: #000000; stroke-linejoin: miter"/>
   </g>
   <g id="patch_13">
    <path d="M 207.304175 281.140454 
L 228.657978 281.140454 
L 228.657978 232.222807 
L 207.304175 232.222807 
z
" clip-path="url(#p7ae753be86)" style="fill: #d62728; opacity: 0.5; stroke: #000000; stroke-linejoin: miter"/>
   </g>
   <g id="patch_14">
    <path d="M 228.657978 281.140454 
L 250.011781 281.140454 
L 250.011781 199.611042 
L 228.657978 199.611042 
z
" clip-path="url(#p7ae753be86)" style="fill: #d62728; opacity: 0.5; stroke: #000000; stroke-linejoin: miter"/>
   </g>
   <g id="patch_15">
    <path d="M 250.011781 281.140454 
L 271.365583 281.140454 
L 271.365583 264.834572 
L 250.011781 264.834572 
z
" clip-path="url(#p7ae753be86)" style="fill: #d62728; opacity: 0.5; stroke: #000000; stroke-linejoin: miter"/>
   </g>
   <g id="patch_16">
    <path d="M 271.365583 281.140454 
L 292.719386 281.140454 
L 292.719386 199.611042 
L 271.365583 199.611042 
z
" clip-path="url(#p7ae753be86)" style="fill: #d62728; opacity: 0.5; stroke: #000000; stroke-linejoin: miter"/>
   </g>
   <g id="patch_17">
    <path d="M 292.719386 281.140454 
L 314.073189 281.140454 
L 314.073189 215.916925 
L 292.719386 215.916925 
z
" clip-path="url(#p7ae753be86)" style="fill: #d62728; opacity: 0.5; stroke: #000000; stroke-linejoin: miter"/>
   </g>
   <g id="patch_18">
    <path d="M 314.073189 281.140454 
L 335.426992 281.140454 
L 335.426992 281.140454 
L 314.073189 281.140454 
z
" clip-path="url(#p7ae753be86)" style="fill: #d62728; opacity: 0.5; stroke: #000000; stroke-linejoin: miter"/>
   </g>
   <g id="patch_19">
    <path d="M 335.426992 281.140454 
L 356.780795 281.140454 
L 356.780795 264.834572 
L 335.426992 264.834572 
z
" clip-path="url(#p7ae753be86)" style="fill: #d62728; opacity: 0.5; stroke: #000000; stroke-linejoin: miter"/>
   </g>
   <g id="patch_20">
    <path d="M 35.461251 281.140454 
L 41.562337 281.140454 
L 41.562337 118.081631 
L 35.461251 118.081631 
z
" clip-path="url(#p7ae753be86)" style="fill: #2ca02c; opacity: 0.5; stroke: #000000; stroke-linejoin: miter"/>
   </g>
   <g id="patch_21">
    <path d="M 41.562337 281.140454 
L 47.663424 281.140454 
L 47.663424 166.999278 
L 41.562337 166.999278 
z
" clip-path="url(#p7ae753be86)" style="fill: #2ca02c; opacity: 0.5; stroke: #000000; stroke-linejoin: miter"/>
   </g>
   <g id="patch_22">
    <path d="M 47.663424 281.140454 
L 53.76451 281.140454 
L 53.76451 69.163984 
L 47.663424 69.163984 
z
" clip-path="url(#p7ae753be86)" style="fill: #2ca02c; opacity: 0.5; stroke: #000000; stroke-linejoin: miter"/>
   </g>
   <g id="patch_23">
    <path d="M 53.76451 281.140454 
L 59.865597 281.140454 
L 59.865597 183.30516 
L 53.76451 183.30516 
z
" clip-path="url(#p7ae753be86)" style="fill: #2ca02c; opacity: 0.5; stroke: #000000; stroke-linejoin: miter"/>
   </g>
   <g id="patch_24">
    <path d="M 59.865597 281.140454 
L 65.966683 281.140454 
L 65.966683 85.469866 
L 59.865597 85.469866 
z
" clip-path="url(#p7ae753be86)" style="fill: #2ca02c; opacity: 0.5; stroke: #000000; stroke-linejoin: miter"/>
   </g>
   <g id="patch_25">
    <path d="M 65.966683 281.140454 
L 72.06777 281.140454 
L 72.06777 52.858101 
L 65.966683 52.858101 
z
" clip-path="url(#p7ae753be86)" style="fill: #2ca02c; opacity: 0.5; stroke: #000000; stroke-linejoin: miter"/>
   </g>
   <g id="patch_26">
    <path d="M 72.06777 281.140454 
L 78.168856 281.140454 
L 78.168856 118.081631 
L 72.06777 118.081631 
z
" clip-path="url(#p7ae753be86)" style="fill: #2ca02c; opacity: 0.5; stroke: #000000; stroke-linejoin: miter"/>
   </g>
   <g id="patch_27">
    <path d="M 78.168856 281.140454 
L 84.269943 281.140454 
L 84.269943 134.387513 
L 78.168856 134.387513 
z
" clip-path="url(#p7ae753be86)" style="fill: #2ca02c; opacity: 0.5; stroke: #000000; stroke-linejoin: miter"/>
   </g>
   <g id="patch_28">
    <path d="M 84.269943 281.140454 
L 90.371029 281.140454 
L 90.371029 232.222807 
L 84.269943 232.222807 
z
" clip-path="url(#p7ae753be86)" style="fill: #2ca02c; opacity: 0.5; stroke: #000000; stroke-linejoin: miter"/>
   </g>
   <g id="patch_29">
    <path d="M 90.371029 281.140454 
L 96.472116 281.140454 
L 96.472116 199.611042 
L 90.371029 199.611042 
z
" clip-path="url(#p7ae753be86)" style="fill: #2ca02c; opacity: 0.5; stroke: #000000; stroke-linejoin: miter"/>
   </g>
   <g id="patch_30">
    <path d="M 96.472116 281.140454 
L 102.573202 281.140454 
L 102.573202 264.834572 
L 96.472116 264.834572 
z
" clip-path="url(#p7ae753be86)" style="fill: #2ca02c; opacity: 0.5; stroke: #000000; stroke-linejoin: miter"/>
   </g>
   <g id="patch_31">
    <path d="M 102.573202 281.140454 
L 108.674289 281.140454 
L 108.674289 199.611042 
L 102.573202 199.611042 
z
" clip-path="url(#p7ae753be86)" style="fill: #2ca02c; opacity: 0.5; stroke: #000000; stroke-linejoin: miter"/>
   </g>
   <g id="patch_32">
    <path d="M 108.674289 281.140454 
L 114.775375 281.140454 
L 114.775375 215.916925 
L 108.674289 215.916925 
z
" clip-path="url(#p7ae753be86)" style="fill: #2ca02c; opacity: 0.5; stroke: #000000; stroke-linejoin: miter"/>
   </g>
   <g id="patch_33">
    <path d="M 114.775375 281.140454 
L 120.876462 281.140454 
L 120.876462 281.140454 
L 114.775375 281.140454 
z
" clip-path="url(#p7ae753be86)" style="fill: #2ca02c; opacity: 0.5; stroke: #000000; stroke-linejoin: miter"/>
   </g>
   <g id="patch_34">
    <path d="M 120.876462 281.140454 
L 126.977548 281.140454 
L 126.977548 264.834572 
L 120.876462 264.834572 
z
" clip-path="url(#p7ae753be86)" style="fill: #2ca02c; opacity: 0.5; stroke: #000000; stroke-linejoin: miter"/>
   </g>
   <g id="line2d_1">
    <path d="M 267.336642 297.446336 
L 267.336642 20.246336 
" clip-path="url(#p7ae753be86)" style="fill: none; stroke: #d62728; stroke-width: 3; stroke-linecap: square"/>
   </g>
   <g id="line2d_2">
    <path d="M 101.422076 297.446336 
L 101.422076 20.246336 
" clip-path="url(#p7ae753be86)" style="fill: none; stroke: #2ca02c; stroke-width: 3; stroke-linecap: square"/>
   </g>
   <g id="mpl_toolkits.axisartist.axis_artist_1">
    <defs>
     <path id="m6f36338f39" d="M 0 0 
L 0 -3.5 
" style="stroke: #000000; stroke-width: 0.8"/>
    </defs>
    <g>
     <use xlink:href="#m6f36338f39" x="170.05625" y="281.140454" style="fill: none; stroke: #000000; stroke-width: 0.8"/>
    </g>
    <g>
     <use xlink:href="#m6f36338f39" x="305.05625" y="281.140454" style="fill: none; stroke: #000000; stroke-width: 0.8"/>
    </g>
    <g id="text_1">
     <!-- 1 -->
     <g transform="translate(163.69375 299.484204) scale(0.2 -0.2)">
      <defs>
       <path id="DejaVuSans-31" d="M 794 531 
L 1825 531 
L 1825 4091 
L 703 3866 
L 703 4441 
L 1819 4666 
L 2450 4666 
L 2450 531 
L 3481 531 
L 3481 0 
L 794 0 
L 794 531 
z
" transform="scale(0.015625)"/>
      </defs>
      <use xlink:href="#DejaVuSans-31"/>
     </g>
    </g>
    <g id="text_2">
     <!-- 2 -->
     <g transform="translate(298.69375 299.484204) scale(0.2 -0.2)">
      <defs>
       <path id="DejaVuSans-32" d="M 1228 531 
L 3431 531 
L 3431 0 
L 469 0 
L 469 531 
Q 828 903 1448 1529 
Q 2069 2156 2228 2338 
Q 2531 2678 2651 2914 
Q 2772 3150 2772 3378 
Q 2772 3750 2511 3984 
Q 2250 4219 1831 4219 
Q 1534 4219 1204 4116 
Q 875 4013 500 3803 
L 500 4441 
Q 881 4594 1212 4672 
Q 1544 4750 1819 4750 
Q 2544 4750 2975 4387 
Q 3406 4025 3406 3419 
Q 3406 3131 3298 2873 
Q 3191 2616 2906 2266 
Q 2828 2175 2409 1742 
Q 1991 1309 1228 531 
z
" transform="scale(0.015625)"/>
      </defs>
      <use xlink:href="#DejaVuSans-32"/>
     </g>
    </g>
    <g id="patch_35">
     <path d="M 8.05625 281.140454 
L 426.55625 281.140454 
" clip-path="url(#p7ae753be86)" style="fill: none; stroke: #000000; stroke-width: 3.5; stroke-linecap: square"/>
    </g>
    <g id="text_3">
     <!-- Nonconformity scores $~~~~\frac{r(x,y)}{u(x)}$ -->
     <g transform="translate(70.10625 326.884204) scale(0.2 -0.2)">
      <defs>
       <path id="DejaVuSans-4e" d="M 628 4666 
L 1478 4666 
L 3547 763 
L 3547 4666 
L 4159 4666 
L 4159 0 
L 3309 0 
L 1241 3903 
L 1241 0 
L 628 0 
L 628 4666 
z
" transform="scale(0.015625)"/>
       <path id="DejaVuSans-6f" d="M 1959 3097 
Q 1497 3097 1228 2736 
Q 959 2375 959 1747 
Q 959 1119 1226 758 
Q 1494 397 1959 397 
Q 2419 397 2687 759 
Q 2956 1122 2956 1747 
Q 2956 2369 2687 2733 
Q 2419 3097 1959 3097 
z
M 1959 3584 
Q 2709 3584 3137 3096 
Q 3566 2609 3566 1747 
Q 3566 888 3137 398 
Q 2709 -91 1959 -91 
Q 1206 -91 779 398 
Q 353 888 353 1747 
Q 353 2609 779 3096 
Q 1206 3584 1959 3584 
z
" transform="scale(0.015625)"/>
       <path id="DejaVuSans-6e" d="M 3513 2113 
L 3513 0 
L 2938 0 
L 2938 2094 
Q 2938 2591 2744 2837 
Q 2550 3084 2163 3084 
Q 1697 3084 1428 2787 
Q 1159 2491 1159 1978 
L 1159 0 
L 581 0 
L 581 3500 
L 1159 3500 
L 1159 2956 
Q 1366 3272 1645 3428 
Q 1925 3584 2291 3584 
Q 2894 3584 3203 3211 
Q 3513 2838 3513 2113 
z
" transform="scale(0.015625)"/>
       <path id="DejaVuSans-63" d="M 3122 3366 
L 3122 2828 
Q 2878 2963 2633 3030 
Q 2388 3097 2138 3097 
Q 1578 3097 1268 2742 
Q 959 2388 959 1747 
Q 959 1106 1268 751 
Q 1578 397 2138 397 
Q 2388 397 2633 464 
Q 2878 531 3122 666 
L 3122 134 
Q 2881 22 2623 -34 
Q 2366 -91 2075 -91 
Q 1284 -91 818 406 
Q 353 903 353 1747 
Q 353 2603 823 3093 
Q 1294 3584 2113 3584 
Q 2378 3584 2631 3529 
Q 2884 3475 3122 3366 
z
" transform="scale(0.015625)"/>
       <path id="DejaVuSans-66" d="M 2375 4863 
L 2375 4384 
L 1825 4384 
Q 1516 4384 1395 4259 
Q 1275 4134 1275 3809 
L 1275 3500 
L 2222 3500 
L 2222 3053 
L 1275 3053 
L 1275 0 
L 697 0 
L 697 3053 
L 147 3053 
L 147 3500 
L 697 3500 
L 697 3744 
Q 697 4328 969 4595 
Q 1241 4863 1831 4863 
L 2375 4863 
z
" transform="scale(0.015625)"/>
       <path id="DejaVuSans-72" d="M 2631 2963 
Q 2534 3019 2420 3045 
Q 2306 3072 2169 3072 
Q 1681 3072 1420 2755 
Q 1159 2438 1159 1844 
L 1159 0 
L 581 0 
L 581 3500 
L 1159 3500 
L 1159 2956 
Q 1341 3275 1631 3429 
Q 1922 3584 2338 3584 
Q 2397 3584 2469 3576 
Q 2541 3569 2628 3553 
L 2631 2963 
z
" transform="scale(0.015625)"/>
       <path id="DejaVuSans-6d" d="M 3328 2828 
Q 3544 3216 3844 3400 
Q 4144 3584 4550 3584 
Q 5097 3584 5394 3201 
Q 5691 2819 5691 2113 
L 5691 0 
L 5113 0 
L 5113 2094 
Q 5113 2597 4934 2840 
Q 4756 3084 4391 3084 
Q 3944 3084 3684 2787 
Q 3425 2491 3425 1978 
L 3425 0 
L 2847 0 
L 2847 2094 
Q 2847 2600 2669 2842 
Q 2491 3084 2119 3084 
Q 1678 3084 1418 2786 
Q 1159 2488 1159 1978 
L 1159 0 
L 581 0 
L 581 3500 
L 1159 3500 
L 1159 2956 
Q 1356 3278 1631 3431 
Q 1906 3584 2284 3584 
Q 2666 3584 2933 3390 
Q 3200 3197 3328 2828 
z
" transform="scale(0.015625)"/>
       <path id="DejaVuSans-69" d="M 603 3500 
L 1178 3500 
L 1178 0 
L 603 0 
L 603 3500 
z
M 603 4863 
L 1178 4863 
L 1178 4134 
L 603 4134 
L 603 4863 
z
" transform="scale(0.015625)"/>
       <path id="DejaVuSans-74" d="M 1172 4494 
L 1172 3500 
L 2356 3500 
L 2356 3053 
L 1172 3053 
L 1172 1153 
Q 1172 725 1289 603 
Q 1406 481 1766 481 
L 2356 481 
L 2356 0 
L 1766 0 
Q 1100 0 847 248 
Q 594 497 594 1153 
L 594 3053 
L 172 3053 
L 172 3500 
L 594 3500 
L 594 4494 
L 1172 4494 
z
" transform="scale(0.015625)"/>
       <path id="DejaVuSans-79" d="M 2059 -325 
Q 1816 -950 1584 -1140 
Q 1353 -1331 966 -1331 
L 506 -1331 
L 506 -850 
L 844 -850 
Q 1081 -850 1212 -737 
Q 1344 -625 1503 -206 
L 1606 56 
L 191 3500 
L 800 3500 
L 1894 763 
L 2988 3500 
L 3597 3500 
L 2059 -325 
z
" transform="scale(0.015625)"/>
       <path id="DejaVuSans-20" transform="scale(0.015625)"/>
       <path id="DejaVuSans-73" d="M 2834 3397 
L 2834 2853 
Q 2591 2978 2328 3040 
Q 2066 3103 1784 3103 
Q 1356 3103 1142 2972 
Q 928 2841 928 2578 
Q 928 2378 1081 2264 
Q 1234 2150 1697 2047 
L 1894 2003 
Q 2506 1872 2764 1633 
Q 3022 1394 3022 966 
Q 3022 478 2636 193 
Q 2250 -91 1575 -91 
Q 1294 -91 989 -36 
Q 684 19 347 128 
L 347 722 
Q 666 556 975 473 
Q 1284 391 1588 391 
Q 1994 391 2212 530 
Q 2431 669 2431 922 
Q 2431 1156 2273 1281 
Q 2116 1406 1581 1522 
L 1381 1569 
Q 847 1681 609 1914 
Q 372 2147 372 2553 
Q 372 3047 722 3315 
Q 1072 3584 1716 3584 
Q 2034 3584 2315 3537 
Q 2597 3491 2834 3397 
z
" transform="scale(0.015625)"/>
       <path id="DejaVuSans-65" d="M 3597 1894 
L 3597 1613 
L 953 1613 
Q 991 1019 1311 708 
Q 1631 397 2203 397 
Q 2534 397 2845 478 
Q 3156 559 3463 722 
L 3463 178 
Q 3153 47 2828 -22 
Q 2503 -91 2169 -91 
Q 1331 -91 842 396 
Q 353 884 353 1716 
Q 353 2575 817 3079 
Q 1281 3584 2069 3584 
Q 2775 3584 3186 3129 
Q 3597 2675 3597 1894 
z
M 3022 2063 
Q 3016 2534 2758 2815 
Q 2500 3097 2075 3097 
Q 1594 3097 1305 2825 
Q 1016 2553 972 2059 
L 3022 2063 
z
" transform="scale(0.015625)"/>
       <path id="DejaVuSans-Oblique-72" d="M 2853 2969 
Q 2766 3016 2653 3041 
Q 2541 3066 2413 3066 
Q 1953 3066 1609 2717 
Q 1266 2369 1153 1784 
L 800 0 
L 225 0 
L 909 3500 
L 1484 3500 
L 1375 2956 
Q 1603 3259 1920 3421 
Q 2238 3584 2597 3584 
Q 2691 3584 2781 3573 
Q 2872 3563 2963 3538 
L 2853 2969 
z
" transform="scale(0.015625)"/>
       <path id="DejaVuSans-28" d="M 1984 4856 
Q 1566 4138 1362 3434 
Q 1159 2731 1159 2009 
Q 1159 1288 1364 580 
Q 1569 -128 1984 -844 
L 1484 -844 
Q 1016 -109 783 600 
Q 550 1309 550 2009 
Q 550 2706 781 3412 
Q 1013 4119 1484 4856 
L 1984 4856 
z
" transform="scale(0.015625)"/>
       <path id="DejaVuSans-Oblique-78" d="M 3841 3500 
L 2234 1784 
L 3219 0 
L 2559 0 
L 1819 1388 
L 531 0 
L -166 0 
L 1556 1844 
L 641 3500 
L 1300 3500 
L 1972 2234 
L 3144 3500 
L 3841 3500 
z
" transform="scale(0.015625)"/>
       <path id="DejaVuSans-2c" d="M 750 794 
L 1409 794 
L 1409 256 
L 897 -744 
L 494 -744 
L 750 256 
L 750 794 
z
" transform="scale(0.015625)"/>
       <path id="DejaVuSans-Oblique-79" d="M 1588 -325 
Q 1188 -997 936 -1164 
Q 684 -1331 294 -1331 
L -159 -1331 
L -63 -850 
L 269 -850 
Q 509 -850 678 -719 
Q 847 -588 1056 -206 
L 1234 128 
L 459 3500 
L 1069 3500 
L 1650 819 
L 3256 3500 
L 3859 3500 
L 1588 -325 
z
" transform="scale(0.015625)"/>
       <path id="DejaVuSans-29" d="M 513 4856 
L 1013 4856 
Q 1481 4119 1714 3412 
Q 1947 2706 1947 2009 
Q 1947 1309 1714 600 
Q 1481 -109 1013 -844 
L 513 -844 
Q 928 -128 1133 580 
Q 1338 1288 1338 2009 
Q 1338 2731 1133 3434 
Q 928 4138 513 4856 
z
" transform="scale(0.015625)"/>
       <path id="DejaVuSans-Oblique-75" d="M 428 1388 
L 838 3500 
L 1416 3500 
L 1006 1409 
Q 975 1256 961 1147 
Q 947 1038 947 966 
Q 947 700 1109 554 
Q 1272 409 1569 409 
Q 2031 409 2368 721 
Q 2706 1034 2809 1563 
L 3194 3500 
L 3769 3500 
L 3091 0 
L 2516 0 
L 2631 550 
Q 2388 244 2052 76 
Q 1716 -91 1338 -91 
Q 878 -91 622 161 
Q 366 413 366 863 
Q 366 956 381 1097 
Q 397 1238 428 1388 
z
" transform="scale(0.015625)"/>
      </defs>
      <use xlink:href="#DejaVuSans-4e" transform="translate(0 0.532813)"/>
      <use xlink:href="#DejaVuSans-6f" transform="translate(74.804688 0.532813)"/>
      <use xlink:href="#DejaVuSans-6e" transform="translate(135.986328 0.532813)"/>
      <use xlink:href="#DejaVuSans-63" transform="translate(199.365234 0.532813)"/>
      <use xlink:href="#DejaVuSans-6f" transform="translate(254.345703 0.532813)"/>
      <use xlink:href="#DejaVuSans-6e" transform="translate(315.527344 0.532813)"/>
      <use xlink:href="#DejaVuSans-66" transform="translate(378.90625 0.532813)"/>
      <use xlink:href="#DejaVuSans-6f" transform="translate(414.111328 0.532813)"/>
      <use xlink:href="#DejaVuSans-72" transform="translate(475.292969 0.532813)"/>
      <use xlink:href="#DejaVuSans-6d" transform="translate(516.40625 0.532813)"/>
      <use xlink:href="#DejaVuSans-69" transform="translate(613.818359 0.532813)"/>
      <use xlink:href="#DejaVuSans-74" transform="translate(641.601562 0.532813)"/>
      <use xlink:href="#DejaVuSans-79" transform="translate(680.810547 0.532813)"/>
      <use xlink:href="#DejaVuSans-20" transform="translate(739.990234 0.532813)"/>
      <use xlink:href="#DejaVuSans-73" transform="translate(771.777344 0.532813)"/>
      <use xlink:href="#DejaVuSans-63" transform="translate(823.876953 0.532813)"/>
      <use xlink:href="#DejaVuSans-6f" transform="translate(878.857422 0.532813)"/>
      <use xlink:href="#DejaVuSans-72" transform="translate(940.039062 0.532813)"/>
      <use xlink:href="#DejaVuSans-65" transform="translate(981.152344 0.532813)"/>
      <use xlink:href="#DejaVuSans-73" transform="translate(1042.675781 0.532813)"/>
      <use xlink:href="#DejaVuSans-20" transform="translate(1094.775391 0.532813)"/>
      <use xlink:href="#DejaVuSans-Oblique-72" transform="translate(1256.444014 58.8875) scale(0.7)"/>
      <use xlink:href="#DejaVuSans-28" transform="translate(1285.223311 58.8875) scale(0.7)"/>
      <use xlink:href="#DejaVuSans-Oblique-78" transform="translate(1312.532881 58.8875) scale(0.7)"/>
      <use xlink:href="#DejaVuSans-2c" transform="translate(1353.958662 58.8875) scale(0.7)"/>
      <use xlink:href="#DejaVuSans-Oblique-79" transform="translate(1389.847334 58.8875) scale(0.7)"/>
      <use xlink:href="#DejaVuSans-29" transform="translate(1431.273115 58.8875) scale(0.7)"/>
      <use xlink:href="#DejaVuSans-Oblique-75" transform="translate(1287.444014 -40.032812) scale(0.7)"/>
      <use xlink:href="#DejaVuSans-28" transform="translate(1331.809248 -40.032812) scale(0.7)"/>
      <use xlink:href="#DejaVuSans-Oblique-78" transform="translate(1359.118818 -40.032812) scale(0.7)"/>
      <use xlink:href="#DejaVuSans-29" transform="translate(1400.5446 -40.032812) scale(0.7)"/>
      <path d="M 1256.444014 19.329688 
L 1256.444014 25.579688 
L 1458.582686 25.579688 
L 1458.582686 19.329688 
L 1256.444014 19.329688 
z
"/>
     </g>
    </g>
   </g>
   <g id="mpl_toolkits.axisartist.axis_artist_2">
    <g id="patch_36">
     <path d="M 35.05625 297.446336 
L 35.05625 20.246336 
" clip-path="url(#p7ae753be86)" style="fill: none; stroke: #000000; stroke-width: 3.5; stroke-linecap: square"/>
    </g>
    <g id="text_4">
     <!-- Counts -->
     <g transform="translate(22.396875 193.752586) rotate(-90) scale(0.2 -0.2)">
      <defs>
       <path id="DejaVuSans-43" d="M 4122 4306 
L 4122 3641 
Q 3803 3938 3442 4084 
Q 3081 4231 2675 4231 
Q 1875 4231 1450 3742 
Q 1025 3253 1025 2328 
Q 1025 1406 1450 917 
Q 1875 428 2675 428 
Q 3081 428 3442 575 
Q 3803 722 4122 1019 
L 4122 359 
Q 3791 134 3420 21 
Q 3050 -91 2638 -91 
Q 1578 -91 968 557 
Q 359 1206 359 2328 
Q 359 3453 968 4101 
Q 1578 4750 2638 4750 
Q 3056 4750 3426 4639 
Q 3797 4528 4122 4306 
z
" transform="scale(0.015625)"/>
       <path id="DejaVuSans-75" d="M 544 1381 
L 544 3500 
L 1119 3500 
L 1119 1403 
Q 1119 906 1312 657 
Q 1506 409 1894 409 
Q 2359 409 2629 706 
Q 2900 1003 2900 1516 
L 2900 3500 
L 3475 3500 
L 3475 0 
L 2900 0 
L 2900 538 
Q 2691 219 2414 64 
Q 2138 -91 1772 -91 
Q 1169 -91 856 284 
Q 544 659 544 1381 
z
M 1991 3584 
L 1991 3584 
z
" transform="scale(0.015625)"/>
      </defs>
      <use xlink:href="#DejaVuSans-43"/>
      <use xlink:href="#DejaVuSans-6f" x="69.824219"/>
      <use xlink:href="#DejaVuSans-75" x="131.005859"/>
      <use xlink:href="#DejaVuSans-6e" x="194.384766"/>
      <use xlink:href="#DejaVuSans-74" x="257.763672"/>
      <use xlink:href="#DejaVuSans-73" x="296.972656"/>
     </g>
    </g>
   </g>
   <g id="text_5">
    <!-- $\hat{q}^1_{90\%}$ -->
    <g style="fill: #d62728" transform="translate(274.086642 44.70516) scale(0.18 -0.18)">
     <defs>
      <path id="DejaVuSans-302" d="M -1831 5119 
L -1369 5119 
L -603 3944 
L -1038 3944 
L -1600 4709 
L -2163 3944 
L -2597 3944 
L -1831 5119 
z
M -1600 3584 
L -1600 3584 
z
" transform="scale(0.015625)"/>
      <path id="DejaVuSans-Oblique-71" d="M 2669 525 
Q 2438 222 2123 65 
Q 1809 -91 1428 -91 
Q 897 -91 595 267 
Q 294 625 294 1253 
Q 294 1759 480 2231 
Q 666 2703 1013 3078 
Q 1238 3322 1530 3453 
Q 1822 3584 2144 3584 
Q 2531 3584 2781 3431 
Q 3031 3278 3144 2969 
L 3244 3494 
L 3822 3494 
L 2888 -1319 
L 2309 -1319 
L 2669 525 
z
M 891 1338 
Q 891 875 1084 633 
Q 1278 391 1644 391 
Q 2188 391 2572 911 
Q 2956 1431 2956 2175 
Q 2956 2625 2757 2864 
Q 2559 3103 2188 3103 
Q 1916 3103 1684 2976 
Q 1453 2850 1281 2606 
Q 1100 2350 995 2006 
Q 891 1663 891 1338 
z
" transform="scale(0.015625)"/>
      <path id="DejaVuSans-39" d="M 703 97 
L 703 672 
Q 941 559 1184 500 
Q 1428 441 1663 441 
Q 2288 441 2617 861 
Q 2947 1281 2994 2138 
Q 2813 1869 2534 1725 
Q 2256 1581 1919 1581 
Q 1219 1581 811 2004 
Q 403 2428 403 3163 
Q 403 3881 828 4315 
Q 1253 4750 1959 4750 
Q 2769 4750 3195 4129 
Q 3622 3509 3622 2328 
Q 3622 1225 3098 567 
Q 2575 -91 1691 -91 
Q 1453 -91 1209 -44 
Q 966 3 703 97 
z
M 1959 2075 
Q 2384 2075 2632 2365 
Q 2881 2656 2881 3163 
Q 2881 3666 2632 3958 
Q 2384 4250 1959 4250 
Q 1534 4250 1286 3958 
Q 1038 3666 1038 3163 
Q 1038 2656 1286 2365 
Q 1534 2075 1959 2075 
z
" transform="scale(0.015625)"/>
      <path id="DejaVuSans-30" d="M 2034 4250 
Q 1547 4250 1301 3770 
Q 1056 3291 1056 2328 
Q 1056 1369 1301 889 
Q 1547 409 2034 409 
Q 2525 409 2770 889 
Q 3016 1369 3016 2328 
Q 3016 3291 2770 3770 
Q 2525 4250 2034 4250 
z
M 2034 4750 
Q 2819 4750 3233 4129 
Q 3647 3509 3647 2328 
Q 3647 1150 3233 529 
Q 2819 -91 2034 -91 
Q 1250 -91 836 529 
Q 422 1150 422 2328 
Q 422 3509 836 4129 
Q 1250 4750 2034 4750 
z
" transform="scale(0.015625)"/>
      <path id="DejaVuSans-25" d="M 4653 2053 
Q 4381 2053 4226 1822 
Q 4072 1591 4072 1178 
Q 4072 772 4226 539 
Q 4381 306 4653 306 
Q 4919 306 5073 539 
Q 5228 772 5228 1178 
Q 5228 1588 5073 1820 
Q 4919 2053 4653 2053 
z
M 4653 2450 
Q 5147 2450 5437 2106 
Q 5728 1763 5728 1178 
Q 5728 594 5436 251 
Q 5144 -91 4653 -91 
Q 4153 -91 3862 251 
Q 3572 594 3572 1178 
Q 3572 1766 3864 2108 
Q 4156 2450 4653 2450 
z
M 1428 4353 
Q 1159 4353 1004 4120 
Q 850 3888 850 3481 
Q 850 3069 1003 2837 
Q 1156 2606 1428 2606 
Q 1700 2606 1854 2837 
Q 2009 3069 2009 3481 
Q 2009 3884 1853 4118 
Q 1697 4353 1428 4353 
z
M 4250 4750 
L 4750 4750 
L 1831 -91 
L 1331 -91 
L 4250 4750 
z
M 1428 4750 
Q 1922 4750 2215 4408 
Q 2509 4066 2509 3481 
Q 2509 2891 2217 2550 
Q 1925 2209 1428 2209 
Q 931 2209 642 2551 
Q 353 2894 353 3481 
Q 353 4063 643 4406 
Q 934 4750 1428 4750 
z
" transform="scale(0.015625)"/>
     </defs>
     <use xlink:href="#DejaVuSans-302" transform="translate(64.447266 13.015625)"/>
     <use xlink:href="#DejaVuSans-Oblique-71" transform="translate(0 0.515625)"/>
     <use xlink:href="#DejaVuSans-31" transform="translate(64.433594 38.796875) scale(0.7)"/>
     <use xlink:href="#DejaVuSans-39" transform="translate(64.433594 -26.828125) scale(0.7)"/>
     <use xlink:href="#DejaVuSans-30" transform="translate(108.969727 -26.828125) scale(0.7)"/>
     <use xlink:href="#DejaVuSans-25" transform="translate(153.505859 -26.828125) scale(0.7)"/>
    </g>
   </g>
   <g id="text_6">
    <!-- $\hat{q}^2_{90\%}$ -->
    <g style="fill: #2ca02c" transform="translate(108.172076 44.70516) scale(0.18 -0.18)">
     <use xlink:href="#DejaVuSans-302" transform="translate(64.447266 13.015625)"/>
     <use xlink:href="#DejaVuSans-Oblique-71" transform="translate(0 0.515625)"/>
     <use xlink:href="#DejaVuSans-32" transform="translate(64.433594 38.796875) scale(0.7)"/>
     <use xlink:href="#DejaVuSans-39" transform="translate(64.433594 -26.828125) scale(0.7)"/>
     <use xlink:href="#DejaVuSans-30" transform="translate(108.969727 -26.828125) scale(0.7)"/>
     <use xlink:href="#DejaVuSans-25" transform="translate(153.505859 -26.828125) scale(0.7)"/>
    </g>
   </g>
   <g id="legend_1">
    <g id="patch_37">
     <path d="M 276.55625 177.126336 
L 412.55625 177.126336 
Q 416.55625 177.126336 416.55625 173.126336 
L 416.55625 89.126336 
Q 416.55625 85.126336 412.55625 85.126336 
L 276.55625 85.126336 
Q 272.55625 85.126336 272.55625 89.126336 
L 272.55625 173.126336 
Q 272.55625 177.126336 276.55625 177.126336 
z
" style="fill: #ffffff; opacity: 0.8; stroke: #cccccc; stroke-linejoin: miter"/>
    </g>
    <g id="patch_38">
     <path d="M 280.55625 115.526336 
L 320.55625 115.526336 
L 320.55625 101.526336 
L 280.55625 101.526336 
z
" style="fill: #d62728; opacity: 0.5; stroke: #000000; stroke-linejoin: miter"/>
    </g>
    <g id="text_7">
     <!-- $\frac{r(x_{cal},y_{cal})}{u_{1}(x_{cal})}$ -->
     <g transform="translate(336.55625 115.526336) scale(0.2 -0.2)">
      <defs>
       <path id="DejaVuSans-Oblique-63" d="M 3431 3366 
L 3316 2797 
Q 3109 2947 2876 3022 
Q 2644 3097 2394 3097 
Q 2119 3097 1870 3000 
Q 1622 2903 1453 2725 
Q 1184 2453 1037 2087 
Q 891 1722 891 1331 
Q 891 859 1127 628 
Q 1363 397 1844 397 
Q 2081 397 2348 469 
Q 2616 541 2906 684 
L 2797 116 
Q 2547 13 2283 -39 
Q 2019 -91 1741 -91 
Q 1044 -91 669 257 
Q 294 606 294 1253 
Q 294 1797 489 2255 
Q 684 2713 1069 3078 
Q 1331 3328 1684 3456 
Q 2038 3584 2456 3584 
Q 2700 3584 2940 3529 
Q 3181 3475 3431 3366 
z
" transform="scale(0.015625)"/>
       <path id="DejaVuSans-Oblique-61" d="M 3438 1997 
L 3047 0 
L 2472 0 
L 2578 531 
Q 2325 219 2001 64 
Q 1678 -91 1281 -91 
Q 834 -91 548 182 
Q 263 456 263 884 
Q 263 1497 752 1853 
Q 1241 2209 2100 2209 
L 2900 2209 
L 2931 2363 
Q 2938 2388 2941 2417 
Q 2944 2447 2944 2509 
Q 2944 2788 2717 2942 
Q 2491 3097 2081 3097 
Q 1800 3097 1504 3025 
Q 1209 2953 897 2809 
L 997 3341 
Q 1322 3463 1633 3523 
Q 1944 3584 2234 3584 
Q 2853 3584 3176 3315 
Q 3500 3047 3500 2534 
Q 3500 2431 3484 2292 
Q 3469 2153 3438 1997 
z
M 2816 1759 
L 2241 1759 
Q 1534 1759 1195 1570 
Q 856 1381 856 984 
Q 856 709 1029 553 
Q 1203 397 1509 397 
Q 1978 397 2328 733 
Q 2678 1069 2791 1631 
L 2816 1759 
z
" transform="scale(0.015625)"/>
       <path id="DejaVuSans-Oblique-6c" d="M 1172 4863 
L 1747 4863 
L 800 0 
L 225 0 
L 1172 4863 
z
" transform="scale(0.015625)"/>
      </defs>
      <use xlink:href="#DejaVuSans-Oblique-72" transform="translate(0 58.8875) scale(0.7)"/>
      <use xlink:href="#DejaVuSans-28" transform="translate(28.779297 58.8875) scale(0.7)"/>
      <use xlink:href="#DejaVuSans-Oblique-78" transform="translate(56.088867 58.8875) scale(0.7)"/>
      <use xlink:href="#DejaVuSans-Oblique-63" transform="translate(97.514648 47.403125) scale(0.49)"/>
      <use xlink:href="#DejaVuSans-Oblique-61" transform="translate(124.455078 47.403125) scale(0.49)"/>
      <use xlink:href="#DejaVuSans-Oblique-6c" transform="translate(154.481934 47.403125) scale(0.49)"/>
      <use xlink:href="#DejaVuSans-2c" transform="translate(170.009766 58.8875) scale(0.7)"/>
      <use xlink:href="#DejaVuSans-Oblique-79" transform="translate(205.898437 58.8875) scale(0.7)"/>
      <use xlink:href="#DejaVuSans-Oblique-63" transform="translate(247.324219 47.403125) scale(0.49)"/>
      <use xlink:href="#DejaVuSans-Oblique-61" transform="translate(274.264648 47.403125) scale(0.49)"/>
      <use xlink:href="#DejaVuSans-Oblique-6c" transform="translate(304.291504 47.403125) scale(0.49)"/>
      <use xlink:href="#DejaVuSans-29" transform="translate(319.819336 58.8875) scale(0.7)"/>
      <use xlink:href="#DejaVuSans-Oblique-75" transform="translate(51 -40.032812) scale(0.7)"/>
      <use xlink:href="#DejaVuSans-31" transform="translate(95.365234 -51.517187) scale(0.49)"/>
      <use xlink:href="#DejaVuSans-28" transform="translate(128.45459 -40.032812) scale(0.7)"/>
      <use xlink:href="#DejaVuSans-Oblique-78" transform="translate(155.76416 -40.032812) scale(0.7)"/>
      <use xlink:href="#DejaVuSans-Oblique-63" transform="translate(197.189941 -51.517187) scale(0.49)"/>
      <use xlink:href="#DejaVuSans-Oblique-61" transform="translate(224.130371 -51.517187) scale(0.49)"/>
      <use xlink:href="#DejaVuSans-Oblique-6c" transform="translate(254.157227 -51.517187) scale(0.49)"/>
      <use xlink:href="#DejaVuSans-29" transform="translate(269.685059 -40.032812) scale(0.7)"/>
      <path d="M 0 19.329688 
L 0 25.579688 
L 347.128906 25.579688 
L 347.128906 19.329688 
L 0 19.329688 
z
"/>
     </g>
    </g>
    <g id="patch_39">
     <path d="M 280.55625 158.526336 
L 320.55625 158.526336 
L 320.55625 144.526336 
L 280.55625 144.526336 
z
" style="fill: #2ca02c; opacity: 0.5; stroke: #000000; stroke-linejoin: miter"/>
    </g>
    <g id="text_8">
     <!-- $\frac{r(x_{cal},y_{cal})}{u_{1}(x_{cal})}$ -->
     <g transform="translate(336.55625 158.526336) scale(0.2 -0.2)">
      <use xlink:href="#DejaVuSans-Oblique-72" transform="translate(0 58.8875) scale(0.7)"/>
      <use xlink:href="#DejaVuSans-28" transform="translate(28.779297 58.8875) scale(0.7)"/>
      <use xlink:href="#DejaVuSans-Oblique-78" transform="translate(56.088867 58.8875) scale(0.7)"/>
      <use xlink:href="#DejaVuSans-Oblique-63" transform="translate(97.514648 47.403125) scale(0.49)"/>
      <use xlink:href="#DejaVuSans-Oblique-61" transform="translate(124.455078 47.403125) scale(0.49)"/>
      <use xlink:href="#DejaVuSans-Oblique-6c" transform="translate(154.481934 47.403125) scale(0.49)"/>
      <use xlink:href="#DejaVuSans-2c" transform="translate(170.009766 58.8875) scale(0.7)"/>
      <use xlink:href="#DejaVuSans-Oblique-79" transform="translate(205.898437 58.8875) scale(0.7)"/>
      <use xlink:href="#DejaVuSans-Oblique-63" transform="translate(247.324219 47.403125) scale(0.49)"/>
      <use xlink:href="#DejaVuSans-Oblique-61" transform="translate(274.264648 47.403125) scale(0.49)"/>
      <use xlink:href="#DejaVuSans-Oblique-6c" transform="translate(304.291504 47.403125) scale(0.49)"/>
      <use xlink:href="#DejaVuSans-29" transform="translate(319.819336 58.8875) scale(0.7)"/>
      <use xlink:href="#DejaVuSans-Oblique-75" transform="translate(51 -40.032812) scale(0.7)"/>
      <use xlink:href="#DejaVuSans-31" transform="translate(95.365234 -51.517187) scale(0.49)"/>
      <use xlink:href="#DejaVuSans-28" transform="translate(128.45459 -40.032812) scale(0.7)"/>
      <use xlink:href="#DejaVuSans-Oblique-78" transform="translate(155.76416 -40.032812) scale(0.7)"/>
      <use xlink:href="#DejaVuSans-Oblique-63" transform="translate(197.189941 -51.517187) scale(0.49)"/>
      <use xlink:href="#DejaVuSans-Oblique-61" transform="translate(224.130371 -51.517187) scale(0.49)"/>
      <use xlink:href="#DejaVuSans-Oblique-6c" transform="translate(254.157227 -51.517187) scale(0.49)"/>
      <use xlink:href="#DejaVuSans-29" transform="translate(269.685059 -40.032812) scale(0.7)"/>
      <path d="M 0 19.329688 
L 0 25.579688 
L 347.128906 25.579688 
L 347.128906 19.329688 
L 0 19.329688 
z
"/>
     </g>
    </g>
   </g>
  </g>
 </g>
 <defs>
  <clipPath id="p7ae753be86">
   <rect x="8.05625" y="20.246336" width="418.5" height="277.2"/>
  </clipPath>
 </defs>
</svg>
